<?xml version="1.0" encoding="UTF-8"?>
<svg width="256" height="256" viewBox="0 0 256 256" xmlns="http://www.w3.org/2000/svg" role="img" aria-label="Group avatar placeholder">
  <defs>
    <linearGradient id="g" x1="0" x2="1" y1="0" y2="1">
      <stop offset="0%" stop-color="#23252b"/>
      <stop offset="100%" stop-color="#1b1c21"/>
    </linearGradient>
  </defs>
  <rect width="256" height="256" rx="24" fill="url(#g)"/>
  <circle cx="128" cy="96" r="34" fill="#3b3f4a"/>
  <circle cx="78"  cy="118" r="26" fill="#3b3f4a"/>
  <circle cx="178" cy="118" r="26" fill="#3b3f4a"/>
  <path d="M64 176c0-20 28-36 64-36s64 16 64 36v18H64v-18z" fill="#2b2f38"/>
  <path d="M32 184c0-14 20-26 46-26 9 0 18 1 26 4-28 6-46 15-46 31v9H32v-18z" fill="#2b2f38" opacity=".9"/>
  <path d="M148 162c8-3 17-4 26-4 26 0 46 12 46 26v18h-26v-9c0-16-18-25-46-31z" fill="#2b2f38" opacity=".9"/>
  <rect x="198" y="26" width="44" height="44" rx="10" fill="#2e333d"/>
  <rect x="218" y="34" width="4" height="28" fill="#7b8191"/>
  <rect x="207" y="45" width="26" height="4" fill="#7b8191"/>
</svg>


